# xmcd
#
# Track frame offsets: 
#        150
#        10580
#        28462
#        45189
#        63035
#        77730
#        96444
#        113857
#
# Disc length: 1834 seconds
#
# Revision: 0
# Processed by: cddbd v1.5.2PL0 Copyright (c) Steve Scherf et al.
# Submitted via: ExactAudioCopy v1.3
#
DISCID=58072808
DTITLE=Blått Rom - Vol. 2 [CD 1)
DYEAR=2015
DGENRE=Blues
TTITLE0=Smokestack Lightning
TTITLE1=Santa Fe Blues
TTITLE2=Joliet Bound
TTITLE3=When the Lights Go Out
TTITLE4=I Don't Owe You a Thing
TTITLE5=Dark Road
TTITLE6=Hard Times Blues
TTITLE7=She's Alright
EXTD=
EXTT0=
EXTT1=
EXTT2=
EXTT3=
EXTT4=
EXTT5=
EXTT6=
EXTT7=
PLAYORDER=
